<svg viewBox="0 0 800 600" xmlns="http://www.w3.org/2000/svg">
  <defs>
    <linearGradient id="bg1" x1="0%" y1="0%" x2="100%" y2="100%">
      <stop offset="0%" stop-color="#123A6B"/>
      <stop offset="100%" stop-color="#0D2B55"/>
    </linearGradient>
  </defs>
  <rect width="800" height="600" fill="url(#bg1)"/>

  <!-- decorative rings -->
  <circle cx="700" cy="80" r="150" fill="none" stroke="rgba(255,255,255,0.06)" stroke-width="1.5"/>
  <circle cx="60" cy="540" r="110" fill="none" stroke="rgba(255,255,255,0.06)" stroke-width="1.5"/>

  <!-- table -->
  <rect x="230" y="430" width="340" height="14" rx="7" fill="rgba(255,255,255,0.18)"/>
  <rect x="255" y="444" width="14" height="70" fill="rgba(255,255,255,0.12)"/>
  <rect x="531" y="444" width="14" height="70" fill="rgba(255,255,255,0.12)"/>

  <!-- left figure (consultant) -->
  <g fill="#F2A65A">
    <circle cx="300" cy="290" r="42"/>
    <path d="M300 336 c-64 0 -96 44 -96 104 l0 4 c40 22 152 22 192 0 l0 -4 c0 -60 -32 -104 -96 -104 z"/>
  </g>

  <!-- right figure (client) -->
  <g fill="#7FB1E0">
    <circle cx="500" cy="290" r="42"/>
    <path d="M500 336 c64 0 96 44 96 104 l0 4 c-40 22 -152 22 -192 0 l0 -4 c0 -60 32 -104 96 -104 z"/>
  </g>

  <!-- speech bubble -->
  <g fill="rgba(255,255,255,0.9)">
    <rect x="356" y="150" width="120" height="70" rx="16"/>
    <path d="M380 220 l0 26 l26 -26 z"/>
  </g>
  <g fill="#0D2B55">
    <circle cx="392" cy="185" r="5"/>
    <circle cx="416" cy="185" r="5"/>
    <circle cx="440" cy="185" r="5"/>
  </g>
</svg>
